<svg xmlns="http://www.w3.org/2000/svg" viewBox="0 0 766 260" width="766" height="260">
  <g fill="#FFFFFF">
  <path d="M690 0H519L233 433V0H62V702H233L519 267V702H690Z" transform="translate(30.00,186.00) scale(0.20000,-0.20000)"/>
  <path d="M28 279Q28 365 66.0 430.5Q104 496 170.0 531.0Q236 566 318 566Q400 566 466.0 531.0Q532 496 570.0 430.5Q608 365 608 279Q608 193 569.5 127.5Q531 62 464.5 27.0Q398 -8 316 -8Q234 -8 168.5 27.0Q103 62 65.5 127.0Q28 192 28 279ZM434 279Q434 346 400.5 382.0Q367 418 318 418Q268 418 235.0 382.5Q202 347 202 279Q202 212 234.5 176.0Q267 140 316 140Q365 140 399.5 176.0Q434 212 434 279Z" transform="translate(179.90,186.00) scale(0.20000,-0.20000)"/>
  <path d="M28 279Q28 365 66.0 430.5Q104 496 170.0 531.0Q236 566 318 566Q400 566 466.0 531.0Q532 496 570.0 430.5Q608 365 608 279Q608 193 569.5 127.5Q531 62 464.5 27.0Q398 -8 316 -8Q234 -8 168.5 27.0Q103 62 65.5 127.0Q28 192 28 279ZM434 279Q434 346 400.5 382.0Q367 418 318 418Q268 418 235.0 382.5Q202 347 202 279Q202 212 234.5 176.0Q267 140 316 140Q365 140 399.5 176.0Q434 212 434 279Z" transform="translate(306.80,186.00) scale(0.20000,-0.20000)"/>
  <path d="M408 564V383H361Q297 383 265.0 355.5Q233 328 233 259V0H62V558H233V465Q263 511 308.0 537.5Q353 564 408 564Z" transform="translate(433.70,186.00) scale(0.20000,-0.20000)"/>
</g>
<g fill="#5EEAD4">
  <path d="M499 124H237L195 0H16L270 702H468L722 0H541ZM455 256 368 513 282 256Z" transform="translate(530.80,186.00) scale(0.20000,-0.20000)"/>
  <path d="M233 702V0H62V702Z" transform="translate(677.70,186.00) scale(0.20000,-0.20000)"/>
</g>
</svg>